<svg xmlns="http://www.w3.org/2000/svg" xmlns:xlink="http://www.w3.org/1999/xlink" viewBox="0,0,256,256" width="200px" height="200px" fill-rule="nonzero"><g fill="#9d02d9" fill-rule="nonzero" stroke="none" stroke-width="1" stroke-linecap="butt" stroke-linejoin="miter" stroke-miterlimit="10" stroke-dasharray="" stroke-dashoffset="0" font-family="none" font-weight="none" font-size="none" text-anchor="none" style="mix-blend-mode: normal"><path d="M0,256v-256h256v256z" id="bgRectangle"></path></g><g fill="#ffffff" fill-rule="nonzero" stroke="none" stroke-width="1" stroke-linecap="butt" stroke-linejoin="miter" stroke-miterlimit="10" stroke-dasharray="" stroke-dashoffset="0" font-family="none" font-weight="none" font-size="none" text-anchor="none" style="mix-blend-mode: normal"><g transform="scale(2.56,2.56)"><path d="M32.92578,24.875c-5.105,0 -8.64506,2.87522 -10.78906,5.44922h-0.09766c-6.113,0 -11.42247,3.27488 -13.85547,8.54688c-0.938,2.031 -1.02819,4.10728 -1.11719,6.11328l-0.04687,0.96094c-0.075,1.401 -0.003,26.97059 0,28.05859c0.002,0.551 0.449,0.99609 1,0.99609h9.99609c0.266,0 0.52003,-0.10497 0.70703,-0.29297c0.187,-0.188 0.29297,-0.44298 0.29297,-0.70898c-0.01,-10.772 -0.02195,-31.31598 -0.00195,-31.95898c0.191,-4.763 2.09453,-7.57964 4.01953,-9.68164c8.077,0.188 13.64339,5.47453 13.90039,13.26953c0.065,2.032 -0.00095,28.10614 -0.00195,28.36914c-0.001,0.266 0.10497,0.52098 0.29297,0.70898c0.187,0.189 0.44103,0.29492 0.70703,0.29492h10.08398c0.553,0 1,-0.447 1,-1c0,-0.299 -0.00044,-29.94464 -0.02344,-32.93164c-0.001,-9.08 -7.05741,-16.19336 -16.06641,-16.19336zM81.98242,24.96875c-0.553,0 -1,0.447 -1,1l0.00195,1.9668c0.015,20.029 0.015,30.42081 0,30.88281c-0.156,3.902 -1.38938,6.94559 -3.98437,9.80859c-7.281,-0.193 -11.60662,-5.17919 -11.89062,-13.74219c-0.061,-1.854 -0.0897,-24.19916 -0.0957,-28.66016c-0.001,-1.102 -0.75809,-1.19141 -0.99609,-1.19141h-0.00391l-10.01172,0.00195c-0.54,0 -0.983,0.4307 -1,0.9707c-0.014,0.435 -0.01562,22.9387 -0.01562,32.5957c0,7.954 5.67314,16.46875 14.11914,16.46875c4.13,0 7.83237,-1.52311 10.73438,-4.41211c0.052,0.001 0.10134,0.00195 0.15234,0.00195c5.766,0 11.19689,-3.34172 13.83789,-8.51172c1.182,-2.314 1.18359,-4.64533 1.18359,-7.11133v-29.06836h0.00195c0,-0.553 -0.447,-1 -1,-1zM32.92578,26.875c7.887,0 14.06445,6.23417 14.06445,14.20117c0.021,2.672 0.02344,26.69183 0.02344,31.92383h-8.07812c0.012,-4.902 0.05709,-25.57845 -0.00391,-27.43945c-0.276,-8.394 -5.89403,-14.24661 -14.20703,-15.09961c1.885,-1.864 4.60017,-3.58594 8.20117,-3.58594zM82.98438,26.96875h8.0293v28.06445h0.00195c0,2.316 0.00011,4.31712 -0.96289,6.20313c-2.047,4.008 -6.01639,6.75445 -10.40039,7.31445c2.113,-2.823 3.18208,-5.9413 3.33008,-9.6543c0.016,-0.417 0.01795,-10.25489 0.00195,-30.96289zM63.01563,27.03125c0.009,7.063 0.03866,26.15297 0.09766,27.91797c0.292,8.863 4.6883,14.50358 11.9043,15.51758c-2.267,1.709 -4.96216,2.60156 -7.91016,2.60156c-7.25,0 -12.12109,-7.4817 -12.12109,-14.4707c0,-13.41 0.00372,-27.74845 0.01172,-31.56445zM32.92969,29.375l-0.14844,0.00195c-0.275,0.006 -0.49428,0.23472 -0.48828,0.51172c0.006,0.272 0.229,0.48828 0.5,0.48828h0.00977l0.12891,-0.00195c1.138,0 2.2515,0.15861 3.3125,0.47461c0.048,0.014 0.09753,0.02148 0.14453,0.02148c0.216,0 0.41452,-0.14142 0.47852,-0.35742c0.078,-0.267 -0.07289,-0.54505 -0.33789,-0.62305c-1.154,-0.342 -2.36461,-0.51562 -3.59961,-0.51562zM88.5,29.46875c-0.276,0 -0.5,0.224 -0.5,0.5v2.86133c0,0.276 0.224,0.5 0.5,0.5c0.276,0 0.5,-0.224 0.5,-0.5v-2.86133c0,-0.276 -0.224,-0.5 -0.5,-0.5zM57.38281,29.5332c-0.276,0 -0.5,0.224 -0.5,0.5c-0.005,6.048 -0.00781,18.02041 -0.00781,28.56641c0,0.842 0.09053,1.70631 0.26953,2.57031c0.049,0.236 0.25728,0.39844 0.48828,0.39844c0.034,0 0.06852,-0.00372 0.10352,-0.01172c0.271,-0.056 0.44272,-0.31884 0.38672,-0.58984c-0.165,-0.797 -0.24805,-1.59419 -0.24805,-2.36719c0,-10.547 0.00281,-22.51941 0.00781,-28.56641c0,-0.275 -0.224,-0.5 -0.5,-0.5zM40.37695,32.01172c-0.1275,0.012 -0.25134,0.07269 -0.33984,0.17969c-0.176,0.213 -0.14464,0.52908 0.06836,0.70508c2.433,2.008 3.82813,4.98578 3.82813,8.17578c0.02,2.482 0.02244,22.76973 0.02344,28.92773c0,0.276 0.224,0.5 0.5,0.5c0.276,0 0.5,-0.224 0.5,-0.5c-0.001,-6.159 -0.00444,-26.44964 -0.02344,-28.93164c0.001,-3.484 -1.52741,-6.74436 -4.19141,-8.94336c-0.1055,-0.088 -0.23774,-0.12528 -0.36523,-0.11328zM20.37109,32.41406c-1.666,2.174 -3.18047,5.15888 -3.35547,9.54688c-0.026,0.64 -0.00695,25.08406 -0.00195,31.03906h-7.99805c-0.026,-9.416 -0.05405,-25.90731 0.00195,-26.94531c0.019,-0.329 0.03288,-0.65742 0.04688,-0.98242c0.083,-1.897 0.16155,-3.68633 0.93555,-5.36133c1.91,-4.14 5.71709,-6.78788 10.37109,-7.29688zM88.5,35.45703c-0.276,0 -0.5,0.224 -0.5,0.5v19.02539c0,2.034 0.00064,3.50495 -0.69336,4.62695c-0.533,0.864 -1.22478,1.663 -2.05078,2.375c-0.209,0.181 -0.23173,0.49608 -0.05273,0.70508c0.099,0.116 0.23791,0.17383 0.37891,0.17383c0.116,0 0.23217,-0.04009 0.32617,-0.12109c0.904,-0.779 1.66105,-1.65642 2.24805,-2.60742c0.844,-1.364 0.84375,-3.03534 0.84375,-5.15234v-19.02539c0,-0.276 -0.224,-0.5 -0.5,-0.5zM11.5625,45.70117c-0.271,-0.016 -0.51139,0.19666 -0.52539,0.47266c-0.013,0.24 -0.02134,1.0532 -0.02734,2.2832c-0.001,0.275 0.22205,0.50095 0.49805,0.50195h0.00195c0.275,0 0.499,-0.22305 0.5,-0.49805c0.006,-1.203 0.01339,-1.99837 0.02539,-2.23438c0.014,-0.276 -0.19666,-0.51039 -0.47266,-0.52539zM11.50391,50.91797c-0.275,0 -0.499,0.22305 -0.5,0.49805c-0.01,4.777 0.00444,11.73094 0.02344,18.58594c0.001,0.276 0.225,0.49805 0.5,0.49805c0.276,-0.001 0.501,-0.22695 0.5,-0.50195c-0.019,-6.854 -0.03344,-13.80508 -0.02344,-18.58008c0.001,-0.276 -0.224,-0.499 -0.5,-0.5zM58.92188,64.22656c-0.06442,0.00628 -0.12945,0.02389 -0.18945,0.05664c-0.243,0.132 -0.33317,0.43769 -0.20117,0.67969c0.438,0.808 0.95144,1.55275 1.52344,2.21875c0.099,0.115 0.23791,0.17383 0.37891,0.17383c0.115,0 0.23117,-0.04009 0.32617,-0.12109c0.209,-0.18 0.23273,-0.49508 0.05273,-0.70508c-0.525,-0.612 -0.99834,-1.30092 -1.40234,-2.04492c-0.09975,-0.18225 -0.29501,-0.27666 -0.48828,-0.25781zM62.21484,68.07031c-0.12613,0.022 -0.24472,0.09208 -0.32422,0.20508c-0.159,0.226 -0.10295,0.53631 0.12305,0.69531c1.326,0.932 2.77088,1.46122 4.29688,1.57422c0.013,0.001 0.02411,0.00195 0.03711,0.00195c0.259,0 0.47905,-0.20184 0.49805,-0.46484c0.019,-0.274 -0.18594,-0.5132 -0.46094,-0.5332c-1.343,-0.099 -2.61988,-0.56948 -3.79687,-1.39648c-0.112,-0.079 -0.24692,-0.10403 -0.37305,-0.08203z"></path></g></g></svg>